HIERARCHY
ROOT Hips
{
	OFFSET 0.00000 0.00000 0.00000
	CHANNELS 6 Xposition Yposition Zposition Zrotation Yrotation Xrotation 
	JOINT LHipJoint
	{
		OFFSET 0 0 0
		CHANNELS 3 Zrotation Yrotation Xrotation
		JOINT LeftUpLeg
		{
			OFFSET 1.61328 -1.70571 0.84375
			CHANNELS 3 Zrotation Yrotation Xrotation
			JOINT LeftLeg
			{
				OFFSET 2.32400 -6.38513 0.00000
				CHANNELS 3 Zrotation Yrotation Xrotation
				JOINT LeftFoot
				{
					OFFSET 2.58843 -7.11166 0.00000
					CHANNELS 3 Zrotation Yrotation Xrotation
					JOINT LeftToeBase
					{
						OFFSET 0.17200 -0.47257 2.47970
						CHANNELS 3 Zrotation Yrotation Xrotation
						End Site
						{
							OFFSET 0.00000 -0.00000 1.26912
						}
					}
				}
			}
		}
	}
	JOINT RHipJoint
	{
		OFFSET 0 0 0
		CHANNELS 3 Zrotation Yrotation Xrotation
		JOINT RightUpLeg
		{
			OFFSET -1.49930 -1.70570 0.84375
			CHANNELS 3 Zrotation Yrotation Xrotation
			JOINT RightLeg
			{
				OFFSET -2.30458 -6.33178 0.00000
				CHANNELS 3 Zrotation Yrotation Xrotation
				JOINT RightFoot
				{
					OFFSET -2.62261 -7.20556 0.00000
					CHANNELS 3 Zrotation Yrotation Xrotation
					JOINT RightToeBase
					{
						OFFSET -0.18709 -0.51403 2.51340
						CHANNELS 3 Zrotation Yrotation Xrotation
						End Site
						{
							OFFSET -0.00000 -0.00000 1.28858
						}
					}
				}
			}
		}
	}
	JOINT LowerBack
	{
		OFFSET 0 0 0
		CHANNELS 3 Zrotation Yrotation Xrotation
		JOINT Spine
		{
			OFFSET -0.03798 2.19274 -0.19881
			CHANNELS 3 Zrotation Yrotation Xrotation
			JOINT Spine1
			{
				OFFSET -0.00024 2.19460 0.05248
				CHANNELS 3 Zrotation Yrotation Xrotation
				JOINT Neck
				{
					OFFSET 0 0 0
					CHANNELS 3 Zrotation Yrotation Xrotation
					JOINT Neck1
					{
						OFFSET -0.00746 1.82323 0.17286
						CHANNELS 3 Zrotation Yrotation Xrotation
						JOINT Head
						{
							OFFSET 0.11826 1.82121 -0.27841
							CHANNELS 3 Zrotation Yrotation Xrotation
							End Site
							{
								OFFSET 0.03496 1.85543 -0.11495
							}
						}
					}
				}
				JOINT LeftShoulder
				{
					OFFSET 0 0 0
					CHANNELS 3 Zrotation Yrotation Xrotation
					JOINT LeftArm
					{
						OFFSET 3.71926 0.78840 0.25473
						CHANNELS 3 Zrotation Yrotation Xrotation
						JOINT LeftForeArm
						{
							OFFSET 5.37587 -0.00000 0.00000
							CHANNELS 3 Zrotation Yrotation Xrotation
							JOINT LeftHand
							{
								OFFSET 3.35977 -0.00000 0.00000
								CHANNELS 3 Zrotation Yrotation Xrotation
								JOINT LeftFingerBase
								{
									OFFSET 0 0 0
									CHANNELS 3 Zrotation Yrotation Xrotation
									JOINT LeftHandIndex1
									{
										OFFSET 0.56186 -0.00000 0.00000
										CHANNELS 3 Zrotation Yrotation Xrotation
										End Site
										{
											OFFSET 0.45299 -0.00000 0.00000
										}
									}
								}
								JOINT LThumb
								{
									OFFSET 0 0 0
									CHANNELS 3 Zrotation Yrotation Xrotation
									End Site
									{
										OFFSET 0.45990 -0.00000 0.45990
									}
								}
							}
						}
					}
				}
				JOINT RightShoulder
				{
					OFFSET 0 0 0
					CHANNELS 3 Zrotation Yrotation Xrotation
					JOINT RightArm
					{
						OFFSET -3.65136 0.56074 0.01624
						CHANNELS 3 Zrotation Yrotation Xrotation
						JOINT RightForeArm
						{
							OFFSET -5.22819 -0.00000 0.00000
							CHANNELS 3 Zrotation Yrotation Xrotation
							JOINT RightHand
							{
								OFFSET -3.40764 -0.00000 0.00000
								CHANNELS 3 Zrotation Yrotation Xrotation
								JOINT RightFingerBase
								{
									OFFSET 0 0 0
									CHANNELS 3 Zrotation Yrotation Xrotation
									JOINT RightHandIndex1
									{
										OFFSET -0.58325 -0.00000 0.00000
										CHANNELS 3 Zrotation Yrotation Xrotation
										End Site
										{
											OFFSET -0.47024 -0.00000 0.00000
										}
									}
								}
								JOINT RThumb
								{
									OFFSET 0 0 0
									CHANNELS 3 Zrotation Yrotation Xrotation
									End Site
									{
										OFFSET -0.47742 -0.00000 0.47742
									}
								}
							}
						}
					}
				}
			}
		}
	}
}
MOTION
Frames: 11
Frame Time: .0083333
47.2158 16.6976 -5.8031 -1226.7800 -86.1996 2669.1600 0.0000 0.0000 0.0000 -24.0090 10.5475 2.2921 0.1658 2.6232 7.2315 0.7042 7.2661 -20.1206 0.0133 0.7452 2.0480 0.0000 0.0000 0.0000 19.9036 11.6422 -32.5086 -4.7935 -13.1474 39.9228 -1.1964 -5.3734 -23.2468 -0.3338 -3.7129 10.2702 -3.1190 -0.6693 0.7273 0.1343 -0.9094 3.3512 1.8658 -0.5618 3.0887 -1.7305 -1.0647 -9.7464 5.7704 -1.3946 -6.7909 2.0754 -0.7742 -0.4301 0.0000 -0.0000 0.0000 -89.8598 -9.3338 35.2312 15.8287 -25.2879 -3.5725 -0.0000 0.0000 -10.3139 20.1911 17.0441 6.1522 -7.1250 0.0000 -0.0000 -7.4378 47.9287 -0.5402 0.0000 -0.0000 0.0000 89.5498 -4.1107 18.2734 -13.4767 21.9817 -2.6290 0.0000 -0.0000 -2.7749 -22.0333 2.6465 -1.0706 7.1250 -0.0000 -0.0000 3.4947 -27.1209 1.5199
47.1695 16.7006 -5.8018 -1226.5100 -86.2006 2668.9700 0.0000 0.0000 0.0000 -23.9777 10.8835 2.9804 0.1175 2.2100 6.0865 0.6547 7.3800 -19.7136 0.0132 0.7431 2.0421 0.0000 0.0000 0.0000 19.9202 11.7368 -32.5207 -4.5326 -12.8372 38.7622 -1.1680 -5.2425 -22.9317 -0.3221 -3.6478 10.0879 -3.1077 -0.6798 0.7102 0.1373 -0.9228 3.3400 1.8622 -0.5679 3.0873 -1.6836 -1.0428 -9.7429 5.6889 -1.3709 -6.9274 2.0417 -0.7676 -0.4762 -0.0000 0.0000 0.0000 -89.8864 -9.3398 35.5587 15.8218 -25.2784 -3.5695 -0.0000 0.0000 -10.2622 20.1154 16.9951 6.1103 -7.1250 0.0000 -0.0000 -7.4969 47.8667 -0.5330 -0.0000 0.0000 0.0000 89.5858 -4.1943 18.1253 -13.4019 21.8732 -2.6011 0.0000 -0.0000 -2.7028 -22.0492 2.6032 -1.0539 7.1250 -0.0000 -0.0000 3.4834 -27.1673 1.5112
47.1221 16.7031 -5.8007 -1226.3000 -86.2086 2668.8400 0.0000 0.0000 0.0000 -23.9378 11.2637 3.8066 0.0703 1.7109 4.7074 0.5926 7.5498 -19.2102 0.0132 0.7415 2.0378 0.0000 0.0000 0.0000 19.9227 11.8326 -32.5257 -4.2855 -12.5309 37.6368 -1.1391 -5.0605 -22.5790 -0.3050 -3.5505 9.8155 -3.0982 -0.6911 0.6962 0.1383 -0.9372 3.3270 1.8575 -0.5744 3.0824 -1.6374 -1.0212 -9.7447 5.6151 -1.3479 -7.0575 2.0107 -0.7612 -0.5191 -0.0000 0.0000 0.0000 -89.9216 -9.3405 35.8459 15.7983 -25.2464 -3.5595 -0.0000 0.0000 -10.1870 20.0366 16.8813 6.0453 -7.1250 0.0000 -0.0000 -7.5421 47.7372 -0.5121 -0.0000 0.0000 0.0000 89.6206 -4.2787 17.9957 -13.3326 21.7726 -2.5753 0.0000 -0.0000 -2.6486 -22.0612 2.5605 -1.0372 7.1250 -0.0000 -0.0000 3.4750 -27.2130 1.5038
47.0734 16.7048 -5.7999 -1226.1700 -86.2231 2668.7800 0.0000 0.0000 0.0000 -23.8744 11.7540 4.9557 0.0242 1.0040 2.7599 0.4994 7.8555 -18.4675 0.0130 0.7354 2.0210 0.0000 0.0000 0.0000 19.9123 11.9311 -32.5260 -4.0539 -12.2318 36.5569 -1.1101 -4.8263 -22.1917 -0.2834 -3.4237 9.4607 -3.0892 -0.7018 0.6836 0.1360 -0.9510 3.3124 1.8498 -0.5805 3.0749 -1.5955 -1.0033 -9.7582 5.5536 -1.3295 -7.1725 1.9842 -0.7564 -0.5550 -0.0000 0.0000 0.0000 -89.9628 -9.3330 36.0984 15.7580 -25.1915 -3.5423 -0.0000 0.0000 -10.0975 19.9774 16.7001 5.9637 -7.1250 0.0000 -0.0000 -7.5514 47.5404 -0.4759 -0.0000 0.0000 0.0000 89.6579 -4.3647 17.8780 -13.2702 21.6818 -2.5522 0.0000 -0.0000 -2.6041 -22.0616 2.5118 -1.0175 7.1250 -0.0000 -0.0000 3.4757 -27.2654 1.4998
47.0235 16.7056 -5.7996 -1226.1500 -86.2472 2668.8400 0.0000 0.0000 0.0000 -23.7729 12.3991 6.5647 0.0000 0.0000 0.0000 0.3647 8.3569 -17.3801 0.0125 0.7229 1.9866 0.0000 0.0000 0.0000 19.8833 12.0338 -32.5234 -3.8393 -11.9435 35.5322 -1.0820 -4.5431 -21.7817 -0.2575 -3.2648 9.0170 -3.0885 -0.7136 0.6721 0.1309 -0.9658 3.2938 1.8438 -0.5872 3.0629 -1.5669 -0.9855 -9.7808 5.5041 -1.3102 -7.2646 1.9640 -0.7502 -0.5819 0.0000 0.0000 0.0000 -90.0105 -9.3084 36.3221 15.7040 -25.1177 -3.5194 -0.0000 0.0000 -10.0019 19.9545 16.5120 5.8915 -7.1250 0.0000 -0.0000 -7.5252 47.3417 -0.4372 0.0000 0.0000 0.0000 89.6943 -4.4571 17.7770 -13.2127 21.5981 -2.5311 0.0000 -0.0000 -2.5715 -22.0540 2.4772 -1.0032 7.1250 -0.0000 -0.0000 3.4823 -27.3028 1.4996
46.9723 16.7054 -5.7999 -1226.3000 -86.2840 2669.0700 0.0000 0.0000 0.0000 -23.7798 12.4992 6.6563 0.0000 -0.0000 -0.0000 0.3845 8.2053 -17.4689 0.0118 0.7004 1.9249 0.0000 0.0000 0.0000 19.8299 12.1504 -32.5166 -3.6429 -11.6694 34.5723 -1.0575 -4.2119 -21.3749 -0.2304 -3.0896 8.5282 -3.1028 -0.7253 0.6572 0.1229 -0.9804 3.2754 1.8433 -0.5941 3.0532 -1.5556 -0.9715 -9.8111 5.4676 -1.2941 -7.3431 1.9509 -0.7447 -0.6028 0.0000 0.0000 0.0000 -90.0656 -9.2747 36.5273 15.6329 -25.0204 -3.4893 -0.0000 0.0000 -9.9092 19.9705 16.3560 5.8428 -7.1250 0.0000 -0.0000 -7.4710 47.1817 -0.4044 0.0000 0.0000 0.0000 89.7308 -4.5489 17.6848 -13.1618 21.5238 -2.5123 0.0000 -0.0000 -2.5421 -22.0392 2.4367 -0.9860 7.1250 -0.0000 -0.0000 3.4945 -27.3467 1.5013
46.9197 16.7041 -5.8010 -1226.6200 -86.3275 2669.4500 0.0000 0.0000 0.0000 -23.7953 12.6010 6.7549 0.0000 0.0000 0.0000 0.4042 8.0533 -17.5575 0.0107 0.6691 1.8388 0.0000 0.0000 0.0000 19.7536 12.2968 -32.4988 -3.4653 -11.4127 33.6846 -1.0371 -3.8690 -20.9997 -0.2021 -2.8949 7.9863 -3.1291 -0.7345 0.6412 0.1123 -0.9914 3.2565 1.8468 -0.5995 3.0437 -1.5579 -0.9610 -9.8501 5.4423 -1.2814 -7.4041 1.9436 -0.7400 -0.6164 -0.0000 -0.0000 0.0000 -90.1262 -9.2294 36.7148 15.5451 -24.8999 -3.4522 -0.0000 0.0000 -9.8240 20.0195 16.2372 5.8172 -7.1250 0.0000 -0.0000 -7.3954 47.0648 -0.3788 -0.0000 -0.0000 0.0000 89.7685 -4.6406 17.5995 -13.1153 21.4559 -2.4953 0.0000 -0.0000 -2.5197 -22.0172 2.4022 -0.9710 7.1250 -0.0000 -0.0000 3.5121 -27.3842 1.5057
46.8656 16.7017 -5.8030 -1227.2100 -86.3794 2670.1200 0.0000 0.0000 0.0000 -23.8265 12.7045 6.8564 0.0000 0.0000 0.0000 0.4233 7.9051 -17.6429 0.0093 0.6237 1.7140 0.0000 0.0000 0.0000 19.6439 12.4875 -32.4691 -3.3069 -11.1760 32.8758 -1.0216 -3.5191 -20.6680 -0.1790 -2.7251 7.5142 -3.1747 -0.7401 0.6206 0.0975 -0.9969 3.2355 1.8569 -0.6027 3.0345 -1.5700 -0.9543 -9.8887 5.4225 -1.2727 -7.4538 1.9397 -0.7367 -0.6263 0.0000 0.0000 0.0000 -90.1931 -9.1707 36.8770 15.4407 -24.7564 -3.4083 -0.0000 0.0000 -9.7427 20.0850 16.1108 5.7938 -7.1250 0.0000 -0.0000 -7.3031 46.9422 -0.3518 0.0000 0.0000 0.0000 89.8078 -4.7368 17.5156 -13.0738 21.3953 -2.4802 0.0000 -0.0000 -2.4919 -21.9920 2.3823 -0.9618 7.1250 -0.0000 -0.0000 3.5319 -27.4059 1.5124
46.8102 16.6983 -5.8057 -1227.9400 -86.4359 2670.9100 0.0000 0.0000 0.0000 -23.8630 12.8092 6.9647 0.0000 -0.0000 -0.0000 0.4422 7.7570 -17.7264 0.0078 0.5688 1.5630 0.0000 0.0000 0.0000 19.5081 12.7288 -32.4222 -3.1676 -10.9616 32.1504 -1.0101 -3.1979 -20.3922 -0.1593 -2.5713 7.0875 -3.2254 -0.7410 0.5978 0.0802 -0.9961 3.2157 1.8673 -0.6028 3.0276 -1.5917 -0.9514 -9.9233 5.4142 -1.2677 -7.5087 1.9412 -0.7351 -0.6382 -0.0000 0.0000 0.0000 -90.2650 -9.1096 37.0125 15.3214 -24.5920 -3.3586 -0.0000 0.0000 -9.6533 20.1326 16.0061 5.7721 -7.1250 0.0000 -0.0000 -7.2329 46.8395 -0.3300 -0.0000 0.0000 0.0000 89.8507 -4.8294 17.4285 -13.0402 21.3460 -2.4679 0.0000 -0.0000 -2.4604 -21.9610 2.3481 -0.9465 7.1250 -0.0000 -0.0000 3.5564 -27.4432 1.5199
46.7536 16.6937 -5.8088 -1228.8200 -86.4928 2671.8600 0.0000 0.0000 0.0000 -23.9031 12.9200 7.0821 0.0000 0.0000 0.0000 0.4605 7.6104 -17.8051 0.0060 0.5009 1.3763 0.0000 0.0000 0.0000 19.3527 13.0073 -32.3585 -3.0474 -10.7714 31.5127 -0.9997 -2.9255 -20.1557 -0.1424 -2.4318 6.7005 -3.2730 -0.7364 0.5772 0.0582 -0.9880 3.1955 1.8714 -0.5991 3.0185 -1.6121 -0.9552 -9.9611 5.4078 -1.2716 -7.5485 1.9428 -0.7376 -0.6444 0.0000 -0.0000 0.0000 -90.3384 -9.0368 37.1135 15.1945 -24.4164 -3.3059 -0.0000 0.0000 -9.5483 20.1703 15.7802 5.7048 -7.1250 0.0000 -0.0000 -7.1436 46.6091 -0.2851 0.0000 -0.0000 0.0000 89.8997 -4.9243 17.3416 -13.0149 21.3091 -2.4587 0.0000 -0.0000 -2.4301 -21.9234 2.2938 -0.9229 7.1250 -0.0000 -0.0000 3.5865 -27.5022 1.5278
46.6957 16.6881 -5.8120 -1229.8600 -86.5513 2672.9500 0.0000 0.0000 0.0000 -23.9484 13.0358 7.2100 0.0000 0.0000 0.0000 0.4781 7.4662 -17.8779 0.0042 0.4201 1.1544 0.0000 0.0000 0.0000 19.1812 13.3036 -32.2836 -2.9459 -10.6070 30.9655 -0.9886 -2.7039 -19.9406 -0.1283 -2.3085 6.3591 -3.3183 -0.7282 0.5602 0.0328 -0.9752 3.1755 1.8709 -0.5929 3.0071 -1.6390 -0.9614 -9.9963 5.4063 -1.2780 -7.5872 1.9470 -0.7410 -0.6505 -0.0000 0.0000 0.0000 -90.4174 -8.9553 37.1729 15.0608 -24.2307 -3.2508 -0.0000 0.0000 -9.4239 20.1735 15.6635 5.6649 -7.1250 0.0000 -0.0000 -7.1132 46.4879 -0.2625 -0.0000 0.0000 0.0000 89.9499 -5.0188 17.2597 -12.9945 21.2792 -2.4513 0.0000 -0.0000 -2.3990 -21.8846 2.2491 -0.9031 7.1250 -0.0000 -0.0000 3.6174 -27.5508 1.5368
